<?xml version="1.0" standalone="no"?>
<!DOCTYPE svg PUBLIC "-//W3C//DTD SVG 20010904//EN"
 "http://www.w3.org/TR/2001/REC-SVG-20010904/DTD/svg10.dtd">
<svg version="1.0" xmlns="http://www.w3.org/2000/svg"
 width="400.000000pt" height="400.000000pt" viewBox="0 0 400.000000 400.000000"
 preserveAspectRatio="xMidYMid meet">
<metadata>
Created by potrace 1.11, written by Peter Selinger 2001-2013
</metadata>
<g transform="translate(0.000000,400.000000) scale(0.100000,-0.100000)"
fill="#000000" stroke="none">
<path d="M0 2000 l0 -2000 2000 0 2000 0 0 2000 0 2000 -2000 0 -2000 0 0
-2000z m2065 1280 c7 -6 172 -253 365 -548 193 -295 468 -715 611 -932 142
-217 262 -405 265 -418 8 -29 -1 -64 -23 -91 -12 -15 -213 -95 -642 -256 -343
-129 -632 -235 -642 -235 -10 0 -154 51 -321 114 -167 63 -447 169 -622 235
-176 66 -328 129 -339 139 -10 11 -21 37 -24 58 -5 44 -33 -2 417 684 117 179
264 404 327 500 387 592 491 746 514 758 27 14 92 10 114 -8z"/>
<path d="M1927 2440 c-208 -35 -365 -256 -328 -462 58 -329 453 -457 687 -224
226 227 111 615 -202 681 -76 16 -87 16 -157 5z"/>
<path d="M1441 1800 c-179 -63 -271 -144 -273 -243 -2 -142 155 -246 466 -310
98 -19 141 -22 366 -22 225 0 268 3 366 22 268 55 440 152 460 260 23 120 -54
212 -237 282 -111 43 -115 43 -144 -6 l-25 -41 72 -22 c211 -64 296 -154 218
-231 l-30 -30 -34 34 c-43 43 -119 73 -253 100 l-103 20 -47 -25 c-75 -41
-148 -58 -243 -58 -95 0 -168 17 -243 58 l-47 25 -103 -20 c-134 -27 -210 -57
-253 -100 l-34 -34 -30 30 c-36 35 -39 77 -10 113 25 33 137 91 228 118 l72
22 -21 37 c-12 20 -25 39 -28 43 -3 4 -44 -6 -90 -22z"/>
</g>
</svg>
